<?xml version="1.0" encoding="UTF-8" standalone="no"?>
<!DOCTYPE svg PUBLIC "-//W3C//DTD SVG 1.1//EN" "http://www.w3.org/Graphics/SVG/1.1/DTD/svg11.dtd">
<svg width="100%" height="100%" viewBox="0 0 1656 425" version="1.1" xmlns="http://www.w3.org/2000/svg" xmlns:xlink="http://www.w3.org/1999/xlink" xml:space="preserve" xmlns:serif="http://www.serif.com/" style="fill-rule:evenodd;clip-rule:evenodd;stroke-linecap:round;stroke-linejoin:round;stroke-miterlimit:1.5;">
    <g transform="matrix(1.33333,0,0,1.33333,-772.124,-2283.93)">
        <g transform="matrix(1,0,0,1,118.11,779.528)">
            <path d="M543.307,1181.1L637.795,944.882" style="fill:none;stroke:black;stroke-width:22.92px;"/>
        </g>
        <g transform="matrix(1,0,0,1,118.11,779.528)">
            <path d="M543.307,1062.99L708.661,1062.99" style="fill:none;stroke:black;stroke-width:22.92px;"/>
        </g>
        <g transform="matrix(0.5,0,0,0.582041,466.535,1235.6)">
            <ellipse cx="330.709" cy="1042.7" rx="23.622" ry="20.292" style="fill:rgb(212,134,32);"/>
        </g>
        <g transform="matrix(1,0,0,1,118.11,779.528)">
            <path d="M472.441,1062.99L484.252,1062.99" style="fill:none;stroke:black;stroke-width:22.92px;"/>
        </g>
        <g transform="matrix(1,0,0,1,356.396,932.061)">
            <g transform="matrix(345.833,0,0,345.833,520.121,1032.34)">
                <path d="M0.082,-0C0.075,-0 0.072,-0.003 0.072,-0.01L0.072,-0.69C0.072,-0.697 0.075,-0.7 0.082,-0.7L0.133,-0.7C0.14,-0.7 0.143,-0.697 0.143,-0.69L0.143,-0.066C0.143,-0.063 0.144,-0.062 0.147,-0.062L0.376,-0.062C0.383,-0.062 0.386,-0.059 0.386,-0.052L0.386,-0.01C0.386,-0.003 0.383,-0 0.376,-0L0.082,-0Z" style="fill-rule:nonzero;"/>
            </g>
            <g transform="matrix(345.833,0,0,345.833,657.071,1032.34)">
                <path d="M0.363,-0.236C0.363,-0.229 0.36,-0.226 0.353,-0.226L0.125,-0.226C0.122,-0.226 0.121,-0.225 0.121,-0.222L0.121,-0.149C0.121,-0.121 0.129,-0.098 0.145,-0.081C0.16,-0.063 0.181,-0.054 0.206,-0.054C0.227,-0.054 0.246,-0.061 0.261,-0.074C0.276,-0.087 0.285,-0.103 0.29,-0.124C0.292,-0.13 0.296,-0.133 0.301,-0.133L0.351,-0.131C0.354,-0.131 0.356,-0.13 0.358,-0.128C0.36,-0.126 0.361,-0.123 0.36,-0.12C0.355,-0.081 0.338,-0.049 0.312,-0.027C0.285,-0.003 0.249,0.008 0.206,0.008C0.159,0.008 0.121,-0.006 0.093,-0.034C0.064,-0.062 0.05,-0.099 0.05,-0.145L0.05,-0.361C0.05,-0.406 0.064,-0.443 0.093,-0.472C0.121,-0.5 0.159,-0.514 0.206,-0.514C0.254,-0.514 0.292,-0.5 0.321,-0.472C0.349,-0.443 0.363,-0.406 0.363,-0.361L0.363,-0.236ZM0.206,-0.452C0.181,-0.452 0.16,-0.443 0.145,-0.426C0.129,-0.408 0.121,-0.385 0.121,-0.356L0.121,-0.289C0.121,-0.286 0.122,-0.285 0.125,-0.285L0.289,-0.285C0.292,-0.285 0.293,-0.286 0.293,-0.289L0.293,-0.356C0.293,-0.385 0.285,-0.408 0.269,-0.426C0.253,-0.443 0.232,-0.452 0.206,-0.452Z" style="fill-rule:nonzero;"/>
            </g>
            <g transform="matrix(345.833,0,0,345.833,796.442,1032.34)">
                <path d="M0.222,-0.646C0.197,-0.646 0.179,-0.638 0.168,-0.621C0.157,-0.604 0.152,-0.577 0.152,-0.541L0.152,-0.51C0.152,-0.507 0.153,-0.506 0.156,-0.506L0.233,-0.506C0.24,-0.506 0.243,-0.503 0.243,-0.496L0.243,-0.463C0.243,-0.456 0.24,-0.453 0.233,-0.453L0.156,-0.453C0.153,-0.453 0.152,-0.452 0.152,-0.449L0.152,-0.01C0.152,-0.003 0.149,-0 0.142,-0L0.092,-0C0.085,-0 0.082,-0.003 0.082,-0.01L0.082,-0.449C0.082,-0.452 0.081,-0.453 0.078,-0.453L0.038,-0.453C0.031,-0.453 0.028,-0.456 0.028,-0.463L0.028,-0.496C0.028,-0.503 0.031,-0.506 0.038,-0.506L0.078,-0.506C0.081,-0.506 0.082,-0.507 0.082,-0.51L0.082,-0.542C0.082,-0.6 0.093,-0.642 0.114,-0.668C0.135,-0.694 0.171,-0.707 0.221,-0.707L0.235,-0.707C0.242,-0.707 0.245,-0.704 0.245,-0.697L0.244,-0.656C0.244,-0.649 0.241,-0.646 0.234,-0.646L0.222,-0.646Z" style="fill-rule:nonzero;"/>
            </g>
            <g transform="matrix(345.833,0,0,345.833,892.237,1032.34)">
                <path d="M0.239,-0.463C0.239,-0.456 0.236,-0.453 0.229,-0.453L0.153,-0.453C0.15,-0.453 0.149,-0.452 0.149,-0.449L0.149,-0.143C0.149,-0.112 0.154,-0.091 0.165,-0.08C0.176,-0.068 0.192,-0.062 0.214,-0.063L0.224,-0.063C0.231,-0.063 0.234,-0.06 0.234,-0.053L0.234,-0.01C0.234,-0.003 0.231,-0 0.224,-0L0.199,-0C0.16,-0 0.13,-0.009 0.11,-0.026C0.089,-0.043 0.079,-0.075 0.079,-0.122L0.079,-0.449C0.079,-0.452 0.078,-0.453 0.075,-0.453L0.036,-0.453C0.029,-0.453 0.026,-0.456 0.026,-0.463L0.026,-0.496C0.026,-0.503 0.029,-0.506 0.036,-0.506L0.075,-0.506C0.078,-0.506 0.079,-0.507 0.079,-0.51L0.079,-0.622C0.079,-0.629 0.082,-0.632 0.089,-0.632L0.139,-0.632C0.146,-0.632 0.149,-0.629 0.149,-0.622L0.149,-0.51C0.149,-0.507 0.15,-0.506 0.153,-0.506L0.229,-0.506C0.236,-0.506 0.239,-0.503 0.239,-0.496L0.239,-0.463Z" style="fill-rule:nonzero;"/>
            </g>
            <g transform="matrix(345.833,0,0,345.833,984.575,1032.34)">
                <path d="M0.239,-0.514C0.281,-0.514 0.315,-0.5 0.34,-0.472C0.365,-0.443 0.378,-0.406 0.378,-0.361L0.378,-0.145C0.378,-0.098 0.365,-0.061 0.34,-0.034C0.315,-0.006 0.281,0.008 0.239,0.008C0.22,0.008 0.203,0.005 0.186,-0.003C0.169,-0.01 0.155,-0.02 0.142,-0.035C0.141,-0.036 0.14,-0.037 0.139,-0.036C0.138,-0.035 0.137,-0.034 0.137,-0.033L0.137,0.184C0.137,0.191 0.134,0.194 0.127,0.194L0.076,0.194C0.069,0.194 0.066,0.191 0.066,0.184L0.066,-0.496C0.066,-0.503 0.069,-0.506 0.076,-0.506L0.127,-0.506C0.134,-0.506 0.137,-0.503 0.137,-0.496L0.137,-0.473C0.137,-0.472 0.138,-0.471 0.139,-0.471C0.14,-0.47 0.142,-0.471 0.143,-0.472C0.155,-0.486 0.169,-0.497 0.187,-0.504C0.204,-0.511 0.221,-0.514 0.239,-0.514ZM0.308,-0.356C0.308,-0.385 0.3,-0.408 0.284,-0.426C0.267,-0.443 0.246,-0.452 0.221,-0.452C0.196,-0.452 0.176,-0.443 0.161,-0.426C0.145,-0.408 0.137,-0.385 0.137,-0.356L0.137,-0.15C0.137,-0.121 0.145,-0.098 0.161,-0.081C0.176,-0.063 0.196,-0.054 0.221,-0.054C0.246,-0.054 0.267,-0.063 0.284,-0.081C0.3,-0.098 0.308,-0.121 0.308,-0.15L0.308,-0.356Z" style="fill-rule:nonzero;"/>
            </g>
            <g transform="matrix(345.833,0,0,345.833,1132.59,1032.34)">
                <path d="M0.207,0.008C0.159,0.008 0.121,-0.006 0.093,-0.034C0.064,-0.062 0.05,-0.099 0.05,-0.145L0.05,-0.36C0.05,-0.405 0.064,-0.442 0.093,-0.471C0.122,-0.5 0.16,-0.514 0.207,-0.514C0.255,-0.514 0.293,-0.5 0.322,-0.471C0.351,-0.442 0.365,-0.405 0.365,-0.36L0.365,-0.145C0.365,-0.099 0.351,-0.062 0.322,-0.034C0.293,-0.006 0.255,0.008 0.207,0.008ZM0.207,-0.055C0.232,-0.055 0.253,-0.064 0.27,-0.081C0.286,-0.098 0.294,-0.121 0.294,-0.15L0.294,-0.356C0.294,-0.385 0.286,-0.408 0.27,-0.426C0.253,-0.443 0.232,-0.452 0.207,-0.452C0.182,-0.452 0.161,-0.443 0.145,-0.426C0.129,-0.408 0.121,-0.385 0.121,-0.356L0.121,-0.15C0.121,-0.121 0.129,-0.098 0.145,-0.081C0.161,-0.064 0.182,-0.055 0.207,-0.055Z" style="fill-rule:nonzero;"/>
            </g>
            <g transform="matrix(345.833,0,0,345.833,1276.11,1032.34)">
                <path d="M0.065,-0C0.058,-0 0.055,-0.003 0.055,-0.01L0.055,-0.69C0.055,-0.697 0.058,-0.7 0.065,-0.7L0.116,-0.7C0.123,-0.7 0.126,-0.697 0.126,-0.69L0.126,-0.01C0.126,-0.003 0.123,-0 0.116,-0L0.065,-0Z" style="fill-rule:nonzero;"/>
            </g>
            <g transform="matrix(345.833,0,0,345.833,1338.71,1032.34)">
                <path d="M0.363,-0.236C0.363,-0.229 0.36,-0.226 0.353,-0.226L0.125,-0.226C0.122,-0.226 0.121,-0.225 0.121,-0.222L0.121,-0.149C0.121,-0.121 0.129,-0.098 0.145,-0.081C0.16,-0.063 0.181,-0.054 0.206,-0.054C0.227,-0.054 0.246,-0.061 0.261,-0.074C0.276,-0.087 0.285,-0.103 0.29,-0.124C0.292,-0.13 0.296,-0.133 0.301,-0.133L0.351,-0.131C0.354,-0.131 0.356,-0.13 0.358,-0.128C0.36,-0.126 0.361,-0.123 0.36,-0.12C0.355,-0.081 0.338,-0.049 0.312,-0.027C0.285,-0.003 0.249,0.008 0.206,0.008C0.159,0.008 0.121,-0.006 0.093,-0.034C0.064,-0.062 0.05,-0.099 0.05,-0.145L0.05,-0.361C0.05,-0.406 0.064,-0.443 0.093,-0.472C0.121,-0.5 0.159,-0.514 0.206,-0.514C0.254,-0.514 0.292,-0.5 0.321,-0.472C0.349,-0.443 0.363,-0.406 0.363,-0.361L0.363,-0.236ZM0.206,-0.452C0.181,-0.452 0.16,-0.443 0.145,-0.426C0.129,-0.408 0.121,-0.385 0.121,-0.356L0.121,-0.289C0.121,-0.286 0.122,-0.285 0.125,-0.285L0.289,-0.285C0.292,-0.285 0.293,-0.286 0.293,-0.289L0.293,-0.356C0.293,-0.385 0.285,-0.408 0.269,-0.426C0.253,-0.443 0.232,-0.452 0.206,-0.452Z" style="fill-rule:nonzero;"/>
            </g>
        </g>
    </g>
</svg>
