<?xml version="1.0" encoding="UTF-8" standalone="no"?>
<!DOCTYPE svg PUBLIC "-//W3C//DTD SVG 1.1//EN" "http://www.w3.org/Graphics/SVG/1.1/DTD/svg11.dtd">
<svg width="100%" height="100%" viewBox="0 0 1242 319" version="1.1" xmlns="http://www.w3.org/2000/svg" xmlns:xlink="http://www.w3.org/1999/xlink" xml:space="preserve" xmlns:serif="http://www.serif.com/" style="fill-rule:evenodd;clip-rule:evenodd;stroke-linecap:round;stroke-linejoin:round;stroke-miterlimit:1.5;">
    <g transform="matrix(1,0,0,1,-579.093,-1712.95)">
        <g transform="matrix(1,0,0,1,118.11,779.528)">
            <path d="M543.307,1181.1L637.795,944.882" style="fill:none;stroke:black;stroke-width:22.92px;"/>
        </g>
        <g transform="matrix(1,0,0,1,118.11,779.528)">
            <path d="M543.307,1062.99L708.661,1062.99" style="fill:none;stroke:black;stroke-width:22.92px;"/>
        </g>
        <g transform="matrix(0.5,0,0,0.582041,466.535,1235.6)">
            <ellipse cx="330.709" cy="1042.7" rx="23.622" ry="20.292" style="fill:rgb(212,134,32);"/>
        </g>
        <g transform="matrix(1,0,0,1,118.11,779.528)">
            <path d="M472.441,1062.99L484.252,1062.99" style="fill:none;stroke:black;stroke-width:22.92px;"/>
        </g>
        <g transform="matrix(1,0,0,1,356.396,932.061)">
            <g transform="matrix(345.833,0,0,345.833,1479.46,1032.34)">
            </g>
            <text x="520.121px" y="1032.34px" style="font-family:'BarlowCondensed-Regular', 'Barlow Condensed';font-stretch:condensed;font-size:345.833px;">Le<tspan x="796.442px " y="1032.34px ">f</tspan>tpole</text>
        </g>
    </g>
</svg>
