<?xml version="1.0" encoding="UTF-8" standalone="no"?>
<!DOCTYPE svg PUBLIC "-//W3C//DTD SVG 1.1//EN" "http://www.w3.org/Graphics/SVG/1.1/DTD/svg11.dtd">
<svg width="100%" height="100%" viewBox="0 0 378 374" version="1.1" xmlns="http://www.w3.org/2000/svg" xmlns:xlink="http://www.w3.org/1999/xlink" xml:space="preserve" xmlns:serif="http://www.serif.com/" style="fill-rule:evenodd;clip-rule:evenodd;stroke-linejoin:round;stroke-miterlimit:2;">
    <g transform="matrix(1.33333,0,0,1.33333,-1073.55,-3087.34)">
        <g transform="matrix(1.5,0,0,1,-80.6631,990.9)">
            <path d="M667.883,1476.38L646.346,1476.38C647.35,1472.73 647.904,1468.73 647.904,1464.54C647.904,1460.37 647.355,1456.39 646.36,1452.76L672.103,1452.76L667.883,1476.38ZM702.196,1452.76L763.78,1452.76C767.956,1452.76 771.962,1455.25 774.915,1459.67C777.868,1464.11 779.528,1470.11 779.528,1476.38L697.976,1476.38L702.196,1452.76ZM678.997,1452.76L695.301,1452.76L691.081,1476.38L674.778,1476.38L678.997,1452.76ZM608.037,1476.38L606.299,1476.38C602.123,1476.38 598.117,1473.89 595.164,1469.46C592.21,1465.03 590.551,1459.02 590.551,1452.76L608.023,1452.76C607.028,1456.39 606.479,1460.37 606.479,1464.54C606.479,1468.73 607.033,1472.73 608.037,1476.38ZM615.541,1452.76L638.842,1452.76C640.359,1456.12 641.244,1460.18 641.244,1464.54C641.244,1468.93 640.349,1473 638.818,1476.38L615.565,1476.38C614.034,1473 613.139,1468.93 613.139,1464.54C613.139,1460.18 614.025,1456.12 615.541,1452.76Z"/>
        </g>
        <g transform="matrix(0.892357,0,0,1.03878,565.014,1372.31)">
            <ellipse cx="330.709" cy="1042.7" rx="23.622" ry="20.292" style="fill:rgb(212,134,32);"/>
        </g>
        <g transform="matrix(0.388229,-1.44889,0.965926,0.258819,-733.719,3068.96)">
            <path d="M590.551,1452.76L763.78,1452.76C767.956,1452.76 771.962,1455.25 774.915,1459.67C777.868,1464.11 779.528,1470.11 779.528,1476.38C779.528,1476.38 779.528,1476.38 779.528,1476.38L606.299,1476.38C602.123,1476.38 598.117,1473.89 595.164,1469.46C592.21,1465.03 590.551,1459.02 590.551,1452.76C590.551,1452.76 590.551,1452.76 590.551,1452.76Z"/>
        </g>
    </g>
</svg>
